<?xml version="1.0" encoding="UTF-8" standalone="no"?>
<svg
   xmlns:dc="http://purl.org/dc/elements/1.1/"
   xmlns:cc="http://creativecommons.org/ns#"
   xmlns:rdf="http://www.w3.org/1999/02/22-rdf-syntax-ns#"
   xmlns:svg="http://www.w3.org/2000/svg"
   xmlns="http://www.w3.org/2000/svg"
   xmlns:sodipodi="http://sodipodi.sourceforge.net/DTD/sodipodi-0.dtd"
   xmlns:inkscape="http://www.inkscape.org/namespaces/inkscape"
   inkscape:version="1.0 (4035a4fb49, 2020-05-01)"
   sodipodi:docname="logo_pmagicos.svg"
   id="svg266"
   version="1.1"
   height="465.96301"
   width="470.28699">
  <metadata
     id="metadata272">
    <rdf:RDF>
      <cc:Work
         rdf:about="">
        <dc:format>image/svg+xml</dc:format>
        <dc:type
           rdf:resource="http://purl.org/dc/dcmitype/StillImage" />
        <dc:title></dc:title>
      </cc:Work>
    </rdf:RDF>
  </metadata>
  <defs
     id="defs270" />
  <sodipodi:namedview
     inkscape:current-layer="svg266"
     inkscape:window-maximized="1"
     inkscape:window-y="-8"
     inkscape:window-x="1352"
     inkscape:cy="262.87176"
     inkscape:cx="134.14199"
     inkscape:zoom="0.74926471"
     showgrid="false"
     id="namedview268"
     inkscape:window-height="1017"
     inkscape:window-width="1920"
     inkscape:pageshadow="2"
     inkscape:pageopacity="0"
     guidetolerance="10"
     gridtolerance="10"
     objecttolerance="10"
     borderopacity="1"
     bordercolor="#666666"
     pagecolor="#ffffff" />
  <path
     id="path4"
     d="m 227.78534,0.5 c 6.506,5.4673 12.779,9.6252 17.56,17 4.201,6.4795 6.473,16.1914 11.834,21.6096 4.33,4.3769 11.454,6.384 16.606,9.7353 10.562,6.8701 20.416,15.0024 28.561,24.6551 30.986,36.721 35.517,85.369 11.567,127 -5.642,9.808 -13.157,18.067 -21.128,25.999 -12.226,12.167 -27.105,21.384 -43,28.001 3.773,1.16 8.198,-0.219 12,-1.13 8.917,-2.137 17.686,-4.726 26,-8.651 34.654,-16.358 61.855,-45.754 71.845,-83.219 14.843,-55.664 -10.395,-115.9898 -60.845,-144.1381 -22.282,-12.4318 -45.772,-16.8619 -71,-16.8619 z"
     style="fill:#d4996e;stroke:#d4996e;stroke-opacity:1" />
  <path
     sodipodi:nodetypes="ccccccccccccccc"
     id="path6"
     d="m 181.78534,26.5 v 2 c 27.426,0.227 48.063,30.0058 59.244,52 14.817,29.147 23.674,59.486 26.925,92 2.039,20.394 1.18,42.755 -6.622,62 -3.047,7.517 -8.038,13.4 -12.547,20 7.482,-1.334 14.11842,-7.7683 21.08342,-10.6683 0.417,-6.814 4.82258,-12.8087 7.05458,-19.3317 2.666,-7.793 3.776,-16.838 4.689,-25 2.871,-25.662 3.454,-52.249 1.003,-78 -0.8,-8.411 -2.753,-16.618 -3.664,-25 -1.362,-12.536 -4.361,-24.8048 -7.537,-37 -1.265,-4.856 -2.269,-11.7602 -6.048,-15.3627 -5.572,-5.312 -14.457,-7.9381 -21.581,-10.304 -20.441,-6.7887 -40.701,-7.3333 -62,-7.3333 z"
     style="fill:#b8471f;stroke:#b8471f;stroke-opacity:1" />
  <path
     id="path8"
     d="m 266.78534,44.5 c 3.335,14.4176 7.867,28.4714 10.88,43 4.625,22.293 6.12,45.291 6.12,68 0,21.279 -0.467,43.24 -5.665,64 -2.163,8.636 -5.935,16.821 -9.335,25 14.678,-4.677 28.647,-20.048 37.625,-32 33.65,-44.793 29.117,-107.536 -10.626,-146.9962 -8.245,-8.1861 -18.261,-16.3706 -28.999,-21.0038 z"
     style="fill:#a21e1d;stroke:#a21e1d;stroke-opacity:1" />
  <path
     id="path10"
     d="M 0.78533601,163.5 C 8.536036,159.908 14.200036,154.625 22.785336,152.245 c 7.72,-2.139 18,-0.927 25,-4.733 4.943,-2.689 8.671,-7.833 13,-11.397 8.319,-6.849 17.3,-12.66 27,-17.357 41.393004,-20.039 90.855004,-12.405 123.961004,19.832 9.811,9.553 18.324,21.572 24.255,33.91 7.376,15.344 12.773,32.876 12.784,50 5.546,-7.209 3,-21.335 3,-30 0,-36.24 -18.086,-72.494 -46,-95.384 -10.438,-8.559 -22.375,-15.425 -35,-20.1909 C 100.94134,50.5628 21.460736,92.059 0.78533601,163.5 Z"
     style="fill:#aac075;stroke:#aac075;stroke-opacity:1" />
  <path
     id="path18"
     d="m 56.785336,140.5 c 17.615,0.002 34.718,2.66 52.000004,5.586 35.35,5.987 71.047,16.18 103,32.672 12.368,6.384 22.349,15.455 34,22.742 -10.657,-51.659 -51.918,-90.275 -105,-93.91 -10.752,-0.737 -21.559,1.146 -32,3.486 -14.208004,3.185 -27.006004,9.617 -39.000004,17.768 -4.735,3.218 -10.257,6.534 -13,11.656 z"
     style="fill:#374b28;stroke:#374b28;stroke-opacity:1" />
  <path
     id="path78"
     d="m 428.78534,137.5 c 3.523,27.874 -17.511,50.681 -37,67.95 -25.07,22.215 -56.106,38.266 -88,48.075 -14.301,4.398 -30.924,8.534 -46,7.871 -12.905,-0.568 -23.108,-4.575 -35,-8.896 2.24,5.823 7.468,13.632 13.17,16.566 3.178,1.636 7.349,1.778 10.83,2.354 11.002,1.818 21.967,1.052 33,0.166 36.077,-2.9 71.284,-12.674 105,-25.51 11.016,-4.194 21.474,-9.556 32,-14.823 4.672,-2.337 9.739,-6.366 15,-6.753 0.367,-8.428 3.705,-16.561 4.715,-25 1.587,-13.274 0.682,-27.864 -1.469,-41 -1.105,-6.746 -1.806,-15.602 -6.246,-21 z"
     style="fill:#ac1e6c;stroke:#ac1e6c;stroke-opacity:1" />
  <path
     id="path86"
     d="m 11.785336,216.5 c 2.5449,-3.071 3.9221,-6.851 6.3904,-10 4.7553,-6.066 10.934,-11.308 17.6096,-15.127 24.448,-13.988 53.289,-17.873 81.000004,-17.873 26.709,0 53.812,3.108 79,12.576 21.651,8.139 40.925,19.026 53,39.424 1.008,-3.28 -0.087,-6.626 -0.572,-10 -0.588,-4.098 -0.009,-8.908 -1.942,-12.7 -2.005,-3.933 -7.076,-6.989 -10.486,-9.635 -15.415,-11.962 -33.828,-20.38 -52,-27.24 -29.87,-11.276 -61.316,-18.789 -93.000004,-22.58 -8.731,-1.045 -17.198,-1.831 -26,-1.845 -3.097,-0.005 -7.058,-0.806 -10,0.313 -6.696,2.548 -12.691,11.182 -16.87,16.687 -12.4804,16.441 -23.3425,37.299 -26.13,58 z"
     style="fill:#65903e;stroke:#65903e;stroke-opacity:1" />
  <path
     id="path116"
     d="m 464.78534,176.5 c -1.626,10.849 -9.76,19.531 -18,26.195 -4.014,3.247 -10.085,6.314 -12.57,10.979 -3.911,7.338 -5.188,17.007 -8.442,24.826 -6.667,16.021 -17.075,31.203 -29.988,42.829 -16.941,15.254 -39.176,25.793 -62,28.001 -43.88,4.247 -88.969,-20.847 -112,-57.83 -1.05,5.994 4.606,13.755 7.248,19 9.703,19.267 24.986,35.583 42.752,47.656 63.277,42.998 155.8,18.837 186.421,-52.656 8.836,-20.629 11.686,-40.718 11.578,-63 -0.036,-7.577 -0.193,-19.893 -4.999,-26 z"
     style="fill:#c885ab;stroke:#c885ab;stroke-opacity:1" />
  <path
     id="path120"
     d="m 57.785336,412.5 c -4.435,-11.899 -1.542,-22.377 2.695,-34 1.764,-4.837 5.412,-9.666 5.077,-15 -0.4,-6.385 -3.62,-12.659 -4.691,-19 -2.598,-15.388 -2.734,-30.691 0.581,-46 10.837,-50.038 56.782004,-87.971 108.338004,-87.971 11.723,0 24.75,1.819 36,5.179 8.168,2.44 15.838,6.459 24,8.792 -4.318,-5.629 -10.925,-9.57 -17,-13.139 -13.53,-7.95 -28.513,-13.671 -44,-16.275 -55.048,-9.252 -112.954004,15.386 -137.679804,67.414 -8.9492,18.831 -12.3202,38.322 -12.3202,59 0,25.048 7.2942,49.983 21.079,71 4.601,7.015 10.162,16.352 17.921,20 z"
     style="fill:#a5c9dd;stroke:#a5c9dd;stroke-width:1;stroke-miterlimit:4;stroke-dasharray:none;stroke-opacity:1" />
  <path
     id="path134"
     d="m 63.785336,353.5 c 23.109,-39.186 52.905004,-73.752 88.000004,-102.75 16.254,-13.43 36.1,-28.297 57,-33.25 -10.584,-6.465 -27.969,-6 -40,-6 -57.349,0 -108.996004,46.168 -109.000004,105 -10e-4,11.297 -2.052,26.913 4,37 z"
     style="fill:#325792;stroke:#325792;stroke-opacity:1" />
  <path
     id="path158"
     d="m 108.78534,428.5 c -3.411,-5.533 -7.221,-10.674 -9.087004,-17 -4.295,-14.557 -1.982,-31.548 1.717004,-46 8.168,-31.918 24.811,-61.454 45.371,-87 7.603,-9.447 15.808,-18.22 24.999,-26.13 17.078,-14.699 35.834,-26.87 59,-26.87 -5.482,-3.683 -15.247,-8.471 -22,-8.157 -6.072,0.283 -12.679,4.256 -18,6.91 -13.207,6.588 -25.497,14.805 -37,24.051 -26.878,21.605 -51.36,47.124 -71.421004,75.196 -4.884,6.833 -9.673,13.782 -13.975,21 -1.789,3.002 -4.316,6.421 -4.641,10 -0.298,3.28 1.275,6.825 1.957,10 2.919,13.603 10.68,26.626 18.424,38 6.218,9.131 14.433,21.233 24.656004,26 z"
     style="fill:#699fb5;stroke:#699fb5;stroke-opacity:1" />
  <path
     id="path162"
     d="m 429.78534,223.5 c -32.888,20.128 -70.494,33.14 -108,41.424 -21.415,4.73 -44.01,8.501 -66,7.537 -6.71,-0.295 -13.347,-2.116 -20,-2.961 6.799,9.651 17.935,17.396 28,23.396 40.297,24.022 92.514,22.021 129,-8.317 13.9,-11.557 24.829,-26.547 32.138,-43.079 2.214,-5.007 6.789,-12.567 4.862,-18 z"
     style="fill:#92175b;stroke:#92175b;stroke-opacity:1" />
  <path
     id="path174"
     d="m 355.78534,444.5 c -2.664,-0.82 -5.216,-0.056 -8,-0.34 -4.785,-0.488 -9.683,-2.412 -14,-4.442 -7.573,-3.559 -15.019,-11.558 -23,-13.565 -7.361,-1.852 -17.259,0.788 -25,0.257 -16.945,-1.16 -34.085,-6.133 -49,-14.219 -10.245,-5.553 -18.805,-12.457 -26.999,-20.691 -32.262,-32.416 -37.874,-79.37 -21.936,-121 4.865,-12.708 12.523,-23.747 19.935,-35 -13.089,5.995 -23.865,21.146 -31.413,33 -24.092,37.839 -28.386,88.754 -7.267,129 34.92,66.544 124.123,88.256 186.68,47 z"
     style="fill:#8d6799;stroke:#8d6799;stroke-opacity:1" />
  <path
     id="path176"
     d="m 206.78534,236.5 c -4.065,4.769 -9.979,11.638 -11.062,18 -0.55,3.236 0.631,6.786 1.013,10 1.525,12.86 6.702,26.211 11.911,38 15.43,34.924 37.218,67.371 62.423,96 8.671,9.848 19.154,18.103 27.715,28 10.115,-2.408 20.713,-1.311 31,-3.895 19.222,-4.828 34.958,-14.617 52,-24.105 -5.237,-1.437 -12.386,3.268 -18,3.829 -10.366,1.037 -21.325,-2.078 -31,-5.521 -27.849,-9.912 -52.305,-28.613 -73,-49.308 -20.183,-20.183 -38.471,-43.907 -48.305,-71 -2.982,-8.216 -5.372,-17.219 -5.652,-26 -0.148,-4.648 2.011,-9.541 0.957,-14 z"
     style="fill:#4c2b70;stroke:#4c2b70;stroke-opacity:1" />
  <path
     id="path196"
     d="m 194.78534,255.5 c -27.45,47.03 -18.466,112.082 25,146.331 22.604,17.81 50.702,24.669 79,24.669 -6.113,-10.676 -18.565,-18.862 -26.83,-28 -14.255,-15.76 -26.985,-33.148 -38.478,-51 -11.886,-18.463 -22.624,-38.276 -30,-59 -2.412,-6.777 -4.702,-13.955 -6.178,-21 -0.854,-4.078 -0.685,-8.195 -2.514,-12 z"
     style="fill:#232543;stroke:#232543;stroke-opacity:1" />
  <path
     id="path238"
     d="m 58.785336,327.5 v 5 c 0.83,-2.031 0.83,-2.97 0,-5 z"
     style="fill:#719abe;stroke:none" />
  <path
     id="path242"
     d="m 60.118336,340.167 c -0.055,0.055 -0.111,1.111 0.334,0.666 0.055,-0.055 0.111,-1.111 -0.334,-0.666 z"
     style="fill:#769ec0;stroke:none" />
  <path
     id="path248"
     d="m 60.785336,344.5 v 3 c 0.696,-1.554 0.696,-1.446 0,-3 z"
     style="fill:#5a83af;stroke:none" />
  <path
     id="path252"
     d="m 62.118336,351.167 c -0.055,0.055 -0.111,1.111 0.334,0.666 0.055,-0.055 0.111,-1.111 -0.334,-0.666 z"
     style="fill:#779ec1;stroke:none" />
</svg>
